<?xml version="1.0" encoding="UTF-8"?>
<svg id="Layer_1" data-name="Layer 1" xmlns="http://www.w3.org/2000/svg" viewBox="0 0 81.6 124.07">
  <defs>
    <style>
      .cls-1 {
        fill: #ff6b1a;
        stroke-width: 0px;
      }
    </style>
  </defs>
  <path class="cls-1" d="M74.36,33.93l-6.5-6.07c-.37-.34-.94-.32-1.28.04l-.43.46c-6.17,6.61-15.37,10.4-25.23,10.4s-19.22-3.86-25.4-10.58l-.43-.47c-.34-.37-.91-.39-1.28-.06L.65,39.74c-.37.34-.39.91-.05,1.28l.43.47c9.89,10.77,24.42,16.95,39.89,16.95.38,0,.76,0,1.15-.01L.2,110.77c-.31.39-.25.96.14,1.27l6.85,5.48s.04.03.05.05l6.5,6.07c.37.34.94.32,1.28-.04l.43-.46c6.17-6.61,15.37-10.4,25.23-10.4s19.22,3.86,25.4,10.58l.43.47c.34.37.91.39,1.28.06l13.16-12.07c.37-.34.39-.91.05-1.28l-.43-.47c-9.89-10.77-24.42-16.95-39.89-16.95-.38,0-.76,0-1.15.01l41.87-52.34c.31-.39.25-.96-.14-1.27l-6.86-5.48s-.04-.03-.05-.05Z"/>
  <path class="cls-1" d="M24.85.05c-2.85.35-4.98,2.49-5.33,5.33-.5,4.02,3.01,7.53,7.03,7.03,2.85-.35,4.98-2.49,5.33-5.33.5-4.02-3.01-7.53-7.03-7.03Z"/>
  <path class="cls-1" d="M55.06.05c-2.85.35-4.98,2.49-5.33,5.33-.5,4.02,3.01,7.53,7.03,7.03,2.85-.35,4.98-2.49,5.33-5.33.5-4.02-3.01-7.53-7.03-7.03Z"/>
</svg>