<?xml version="1.0" encoding="UTF-8"?>
<svg id="Layer_1" data-name="Layer 1" xmlns="http://www.w3.org/2000/svg" viewBox="0 0 483.55 154.34">
  <defs>
    <style>
      .cls-1 {
        fill: #f2d065;
        stroke-width: 0px;
      }
    </style>
  </defs>
  <path class="cls-1" d="M53.2,49.71c-10.46,0-20.7,3.41-27.87,8.94-.66.51-1.6.04-1.6-.79V1.49c0-.55-.45-1-1-1H1C.45.49,0,.94,0,1.49v149.88c0,.55.45,1,1,1h21.73c.55,0,1-.45,1-1v-5.39c0-.82.92-1.29,1.58-.81,7.39,5.42,17.82,8.87,27.89,8.87,29.02,0,49.29-21.49,49.29-52.26s-21.19-52.08-49.29-52.08ZM50.96,131.82c-16.26,0-27.61-12.35-27.61-30.03,0-14.74,9.48-29.66,27.61-29.66,16.26,0,27.61,12.2,27.61,29.66s-11.35,30.03-27.61,30.03Z"/>
  <path class="cls-1" d="M124.43,152.37h21.73c.55,0,1-.48,1-1.07V1.07c0-.59-.45-1.07-1-1.07h-21.73c-.55,0-1,.48-1,1.07v150.24c0,.59.45,1.07,1,1.07Z"/>
  <rect class="cls-1" x="176.11" y="51.38" width="23.72" height="100.99" rx="1" ry="1"/>
  <path class="cls-1" d="M185.78.12c-7.37.92-12.89,6.44-13.81,13.81-1.3,10.4,7.8,19.5,18.2,18.21,7.38-.92,12.9-6.44,13.82-13.82,1.29-10.4-7.8-19.5-18.21-18.2Z"/>
  <path class="cls-1" d="M385.53,49.71c-10.46,0-20.7,3.41-27.87,8.94-.66.51-1.6.04-1.6-.79V1.49c0-.55-.45-1-1-1h-21.73c-.55,0-1,.45-1,1v149.88c0,.55.45,1,1,1h21.73c.55,0,1-.45,1-1v-5.39c0-.82.92-1.29,1.58-.81,7.39,5.42,17.82,8.87,27.89,8.87,29.02,0,49.28-21.49,49.28-52.26s-21.19-52.08-49.28-52.08ZM383.3,131.82c-16.26,0-27.61-12.35-27.61-30.03,0-14.74,9.48-29.66,27.61-29.66,16.26,0,27.61,12.2,27.61,29.66s-11.35,30.03-27.61,30.03Z"/>
  <path class="cls-1" d="M469.61,32.14c7.38-.92,12.9-6.44,13.82-13.82,1.29-10.4-7.8-19.5-18.21-18.2-7.37.92-12.89,6.44-13.81,13.81-1.3,10.4,7.8,19.5,18.2,18.21Z"/>
  <rect class="cls-1" x="455.55" y="51.38" width="23.72" height="100.99" rx="1" ry="1"/>
  <path class="cls-1" d="M303.78,54.87l-7.17-6.7c-.4-.38-1.04-.36-1.41.05l-.48.51c-6.81,7.29-16.96,11.48-27.84,11.48s-21.21-4.26-28.03-11.68l-.47-.52c-.37-.41-1.01-.43-1.41-.06l-14.52,13.32c-.41.37-.43,1.01-.06,1.41l.47.52c10.91,11.89,26.95,18.7,44.02,18.7.42,0,.84,0,1.27-.01l-46.2,57.76c-.35.43-.27,1.06.16,1.41l7.56,6.04s.04.03.06.05l7.17,6.7c.4.38,1.04.36,1.41-.05l.48-.51c6.81-7.29,16.96-11.47,27.84-11.47s21.21,4.26,28.03,11.68l.47.52c.37.41,1.01.43,1.41.06l14.52-13.32c.41-.37.43-1.01.06-1.41l-.47-.52c-10.91-11.89-26.95-18.7-44.02-18.7-.42,0-.84,0-1.27.01l46.2-57.76c.35-.43.27-1.06-.16-1.41l-7.57-6.05s-.04-.03-.06-.05Z"/>
</svg>