<?xml version="1.0" encoding="UTF-8"?>
<svg id="Layer_2" data-name="Layer 2" xmlns="http://www.w3.org/2000/svg" viewBox="0 0 140.29 138.9">
  <defs>
    <style>
      .cls-1 {
        fill: #FF5F00;
        stroke-width: 0px;
      }
    </style>
  </defs>
  <g id="Layer_2-2" data-name="Layer 2">
    <path class="cls-1" d="M111.2,90.58c4.65,3.2,9.45,6.58,12.27,11.48,2.84,4.89,3.12,11.73-.86,15.75-3.86,3.88-10.42,3.8-15.3,1.29-4.87-2.51-8.44-6.9-11.86-11.18,2.42,4.89,4.88,9.97,5.1,15.43s-2.42,11.43-7.52,13.35c-5.3,2-11.44-1.03-14.79-5.59-3.36-4.55-4.59-10.29-5.74-15.83-.48,5.55-1.02,11.3-3.77,16.14-2.76,4.84-8.4,8.52-13.82,7.19-5.35-1.32-8.64-7.07-8.92-12.57-.28-5.5,1.78-10.81,3.79-15.94-3.29,4.63-6.73,9.39-11.66,12.2-4.93,2.8-11.8,3.05-15.79-.98-3.73-3.77-3.75-10.08-1.47-14.88,2.29-4.8,6.39-8.43,10.39-11.93-7.46,3.4-16.52,6.72-23.41,2.28-3.45-2.22-5.66-6.26-5.66-10.36,0-4.09,2.21-8.14,5.66-10.35,5.61-1.7,11.23-3.38,16.83-5.08-5.15.14-10.44.24-15.25-1.57C4.6,67.61.31,63.4.02,58.26c-.32-5.64,4.31-10.63,9.63-12.49,5.33-1.87,11.18-1.28,16.75-.4-3.38-2.64-6.82-5.36-9.1-8.98-2.29-3.63-3.23-8.4-1.28-12.22,2.71-5.32,10.05-6.78,15.68-4.79,5.63,2,9.93,6.53,14,10.9-4.51-4.85-6.13-12.55-5.3-18.98.37-2.83,1.25-5.62,3.23-7.74C45.86,1.19,49.13-.25,52.4.08c2.23.22,4.6.7,6.41,2.13,2.97,2.35,5.19,6.15,6.81,9.54,1.58,3.32,2.92,7.07,2.99,10.78,0,.41,0,.81-.04,1.22.51-5.6,1.08-11.4,3.87-16.26,2.8-4.87,8.49-8.56,13.94-7.2,5.26,1.31,8.57,6.87,9,12.28.43,5.41-1.39,10.71-3.18,15.82,2.96-4.4,6.06-8.92,10.53-11.78,4.48-2.85,10.76-3.6,14.92-.32,4.46,3.51,4.98,10.38,2.7,15.58-2.27,5.2-6.66,9.12-10.93,12.85,5.07-2.43,10.4-4.83,16.04-4.79,5.63.05,11.63,3.29,13.06,8.73,1.38,5.26-1.95,10.83-6.51,13.79-4.56,2.96-10.1,3.88-15.47,4.74,5.44.38,11.06.82,15.88,3.37,2.26,1.2,4.29,2.98,5.73,5.1,1.63,2.41,2.49,5.25,2.02,8.11-.94,5.61-6.7,9.38-12.36,9.96-5.65.58-11.24-1.3-16.61-3.16Z"/>
  </g>
</svg>